<svg xmlns="http://www.w3.org/2000/svg" viewBox="0 0 79.62 108.42"><defs><style>.cls-1{fill:#e9effe;stroke:#1b5a92;stroke-miterlimit:10;}</style></defs><g id="Layer_2" data-name="Layer 2"><g id="Layer_1-2" data-name="Layer 1"><polygon class="cls-1" points="79.12 25.39 79.12 107.92 0.5 107.92 0.5 25.39 39.81 0.59 79.12 25.39"/><polyline class="cls-1" points="0.5 30.21 39.81 5.05 79.12 30.21"/><path d="M36.23,45.92c.62.32,1.27.59,1.88.95A19.45,19.45,0,0,1,44,52.42a28.4,28.4,0,0,1,4.1,8.69c.08.27.15.55.24.86.14-.15.27-.27.39-.41a5.36,5.36,0,0,0,1.15-2.94,9.65,9.65,0,0,0-.62-4.49l.37.31a26.66,26.66,0,0,1,4,4.66,28.29,28.29,0,0,1,3.91,7.83,18.52,18.52,0,0,1,.86,6.65,15.92,15.92,0,0,1-3,8.4,23.94,23.94,0,0,1-6,5.74c-.88.61-1.8,1.15-2.7,1.72l-.23.12a1.51,1.51,0,0,1,.06-.15,18.72,18.72,0,0,0,1.88-9.19,21.69,21.69,0,0,0-3.81-11.46,18.82,18.82,0,0,0-4.48-4.64L40,64A16.55,16.55,0,0,1,36.4,76a8.87,8.87,0,0,0-1.19-6.36l-.07.28A21,21,0,0,1,32,77a14.12,14.12,0,0,0-1.88,3.69A10,10,0,0,0,30,86.28a17.14,17.14,0,0,0,1.07,3,.75.75,0,0,1,.08.31c-.48-.29-1-.57-1.46-.87a28.44,28.44,0,0,1-5.16-3.9,13,13,0,0,1-3.39-5.13,12.12,12.12,0,0,1-.54-4.75,18.56,18.56,0,0,1,2-6.79c.78-1.61,1.57-3.21,2.31-4.84A13.44,13.44,0,0,0,26,59.13c0-.12,0-.25.05-.42a14.53,14.53,0,0,1,1.76,7.19,1,1,0,0,1,.11-.11,49.48,49.48,0,0,0,5.81-8.71,24.21,24.21,0,0,0,2.16-5.89,15,15,0,0,0,.26-5,1.77,1.77,0,0,1,0-.23Z"/></g></g></svg>