<svg xmlns="http://www.w3.org/2000/svg" viewBox="0 0 79.62 108.42"><defs><style>.cls-1{fill:#e9effe;stroke:#1b5a92;stroke-miterlimit:10;}</style></defs><g id="Layer_2" data-name="Layer 2"><g id="Layer_1-2" data-name="Layer 1"><polygon class="cls-1" points="79.12 25.39 79.12 107.92 0.5 107.92 0.5 25.39 39.81 0.59 79.12 25.39"/><polyline class="cls-1" points="0.5 30.21 39.81 5.05 79.12 30.21"/><path class="cls-1" d="M61.22,43s-4.61,5.14,0,27.75c0,0,1.61,18.06-21.39,23.34,0,0-21-7.72-21-21.72,0,0,4-21.73,0-29.37l3-2.63s10,6.11,18-1c0,0,9.22,8.06,17.61,0Z"/><polygon class="cls-1" points="40.04 58.54 42.7 63.94 48.67 64.81 44.35 69.01 45.37 74.95 40.04 72.15 34.71 74.95 35.72 69.01 31.41 64.81 37.37 63.94 40.04 58.54"/></g></g></svg>